<?xml version="1.0" encoding="UTF-8"?>
<svg width="11px" height="9px" viewBox="0 0 11 9" version="1.1" xmlns="http://www.w3.org/2000/svg" xmlns:xlink="http://www.w3.org/1999/xlink">
    <title>check-lg</title>
    <g id="Page-1" stroke="none" stroke-width="1" fill="none" fill-rule="evenodd">
        <g id="check-lg" fill="#30D158" fill-rule="nonzero">
            <path d="M9.73549191,0.219933971 C9.87335592,0.0792662844 10.0620303,0 10.2589919,0 C10.4559535,0 10.6446279,0.0792662844 10.7824919,0.219933971 C11.0684919,0.508933971 11.0724919,0.975933971 10.7924919,1.26993397 L4.87949191,8.25993397 C4.74381191,8.40892685 4.55277735,8.49549025 4.35129876,8.49927389 C4.14982017,8.50305752 3.95567024,8.42372763 3.81449191,8.27993397 L0.216491906,4.63393397 C-0.0721639686,4.33955503 -0.0721639686,3.86831291 0.216491906,3.57393397 C0.35435592,3.43326628 0.543030274,3.354 0.739991906,3.354 C0.936953538,3.354 1.12562789,3.43326628 1.26349191,3.57393397 L4.31549191,6.66693397 L9.71549191,0.241933971 C9.72171076,0.234205683 9.72838952,0.226859044 9.73549191,0.219933971 Z" id="Path"></path>
        </g>
    </g>
</svg>